<svg width="234" height="234" viewBox="0 0 234 234" fill="none" xmlns="http://www.w3.org/2000/svg">
<path d="M166.667 146.667H156.133L152.4 143.067C165.918 127.387 173.348 107.369 173.333 86.6667C173.333 69.5257 168.25 52.7695 158.727 38.5173C149.204 24.265 135.669 13.1567 119.833 6.59715C103.996 0.0375513 86.5706 -1.67874 69.7589 1.66531C52.9472 5.00937 37.5047 13.2636 25.3841 25.3841C13.2636 37.5047 5.00937 52.9472 1.66531 69.7589C-1.67874 86.5706 0.0375513 103.996 6.59715 119.833C13.1567 135.669 24.265 149.204 38.5173 158.727C52.7695 168.25 69.5257 173.333 86.6667 173.333C108.133 173.333 127.867 165.467 143.067 152.4L146.667 156.133V166.667L213.333 233.2L233.2 213.333L166.667 146.667V146.667ZM86.6667 146.667C53.4667 146.667 26.6667 119.867 26.6667 86.6667C26.6667 53.4667 53.4667 26.6667 86.6667 26.6667C119.867 26.6667 146.667 53.4667 146.667 86.6667C146.667 119.867 119.867 146.667 86.6667 146.667Z" fill="#0000004d"/>
</svg>
