<svg width="444" height="500" viewBox="0 0 444 500" fill="none" xmlns="http://www.w3.org/2000/svg">
<rect x="198.137" y="405.482" width="47.2" height="80.5176" fill="#34A853"/>
<rect x="150.475" y="14" width="142.063" height="305.412" rx="71.0314" fill="#4286F5"/>
<path d="M57 250.231C57 271.774 61.2551 293.105 69.5223 313.008C77.7895 332.911 89.9069 350.995 105.183 366.227C120.458 381.46 138.593 393.544 158.552 401.787C178.511 410.031 199.903 414.275 221.506 414.275C243.109 414.275 264.501 410.031 284.46 401.787C304.418 393.544 322.553 381.46 337.829 366.227C353.105 350.995 365.222 332.911 373.49 313.008C381.757 293.105 386.012 271.774 386.012 250.231H337.803C337.803 265.461 334.795 280.541 328.95 294.611C323.106 308.681 314.539 321.466 303.74 332.234C292.941 343.003 280.121 351.546 266.011 357.374C251.901 363.202 236.778 366.201 221.506 366.201C206.234 366.201 191.111 363.202 177.001 357.374C162.891 351.546 150.071 343.003 139.271 332.234C128.472 321.466 119.906 308.681 114.061 294.611C108.217 280.541 105.209 265.461 105.209 250.231L57 250.231Z" fill="#EA4235"/>
<path d="M57 250.231C57 271.774 61.2551 293.105 69.5223 313.008C77.7895 332.911 89.9069 350.995 105.183 366.227L139.271 332.234C128.472 321.466 119.906 308.681 114.061 294.611C108.217 280.541 105.209 265.461 105.209 250.231L57 250.231Z" fill="#FABC05"/>
</svg>
